<svg id="e0d7c2ea-40b4-4f2c-922f-612bbfb56433" data-name="Camada 2" xmlns="http://www.w3.org/2000/svg" viewBox="0 0 1411.37 1283.87"><path d="M585,1313c420.12,85.2,616-132.61,739-144.73,79.12-3.66,141.94,78.25,117.23,172.07-23.09,44.94-63.9,65.56-138.51,39.82" transform="translate(-36.29 -108.57)" fill="none" stroke="#1b1464" stroke-miterlimit="10" stroke-width="2"/><path d="M632,1251V927.22c12.72-129.5,91.69-164.12,213.58-159.48-27.22-19-58.56-23.16-107.32-26.55a8.56,8.56,0,0,1-8.07-6.93c-10.95-68.71-13.33-108.2-31.77-123.5,9.79,35.38-4.31,81.22-48.56,173.46-23.47,43.63-43.19,79.76-43,142.89V1251C613.3,1256.44,627.26,1256.44,632,1251Z" transform="translate(-36.29 -108.57)" fill="#f15a24"/><path d="M600.57,934.86c6.25-278,129-407.46,183.24-400.53-36.35-46.81-169.93,83.27-198.54,87.07C522.94,592.3,420.2,467.08,381.34,517.83c87.92,5.73,186.18,159.6,186.26,417.05l0,316.25c8.69,5.28,25.68,5.28,33,0Z" transform="translate(-36.29 -108.57)" fill="#f15a24"/><path d="M562.67,925.67c1.19-75.19-28.67-162.54-51.74-201.84-34.74-78.62-47.65-100.21-45.28-112.17-9.13,2.89-5.89,11.81,3.23,111.35.37,4-3,7.51-7.36,7.65C360.79,734,350.93,745.6,323.71,760.32c131.49-16.83,201.42,39.4,213.87,166.9V1251c3.15,5.4,15.95,5.8,25.31,0Z" transform="translate(-36.29 -108.57)" fill="#f15a24"/><path d="M537.58,1256.83c9.8,3.59,20.2,4.64,28.62,0a57.23,57.23,0,0,0,37.33,0c12.56,5,18.87,3.64,28.46,0l-37.76,45.84c-2.76-3.14-14.45-3.79-18.94,0Z" transform="translate(-36.29 -108.57)" fill="#f15a24"/><path d="M593.11,1304.15c-2.8-2.75-12.94-3.32-16.84-.24l8.59,10.25Z" transform="translate(-36.29 -108.57)" fill="#f15a24"/><circle cx="211.86" cy="666.87" r="95.81" fill="#e11e95" opacity="0.61"/><circle cx="362.98" cy="568.21" r="48.51" fill="#f15a24"/><circle cx="95.81" cy="619.57" r="61.45" fill="#f15a24" opacity="0.64"/><circle cx="232.56" cy="493.1" r="75.11" fill="#39b54a" opacity="0.43"/><circle cx="681.42" cy="286.18" r="60.17" fill="#fbb03b" opacity="0.71"/><circle cx="95.81" cy="493.1" r="95.81" fill="#0071bc" opacity="0.67"/><circle cx="747.53" cy="571.04" r="48.51" fill="#f15a24"/><circle cx="551.71" cy="404.01" r="68.87" fill="#f15a24"/><circle cx="760.83" cy="103.86" r="95.81" fill="#e11e95" opacity="0.61"/><circle cx="1011.45" cy="477.03" r="63.9" fill="#e11e95" opacity="0.61"/><circle cx="314.47" cy="327.14" r="93.83" fill="#fbb03b" opacity="0.71"/><circle cx="625.58" cy="230.71" r="75.11" fill="#39b54a" opacity="0.43"/><circle cx="920.06" cy="593.69" r="99.73" fill="#39b54a" opacity="0.43"/><circle cx="979.54" cy="376.13" r="95.81" fill="#0071bc" opacity="0.67"/><circle cx="460.21" cy="292.01" r="62.56" fill="#0071bc" opacity="0.67"/><circle cx="322.34" cy="172.63" r="98.81" fill="#f15a24" opacity="0.64"/><circle cx="910.02" cy="172.63" r="53.39" fill="#f15a24" opacity="0.64"/><circle cx="211.86" cy="359.74" r="53.39" fill="#f15a24" opacity="0.64"/><circle cx="426.96" cy="63.9" r="63.9" fill="#e11e95" opacity="0.61"/><circle cx="827.17" cy="501.49" r="53.39" fill="#f15a24" opacity="0.64"/><circle cx="522.77" cy="149.51" r="95.81" fill="#1b1464" opacity="0.67"/><circle cx="116.05" cy="335.13" r="64.91" fill="#1b1464" opacity="0.67"/><circle cx="1011.45" cy="245.32" r="64.91" fill="#1b1464" opacity="0.67"/><circle cx="829.27" cy="376.13" r="93.83" fill="#fbb03b" opacity="0.71"/><circle cx="191.62" cy="204.34" r="56.65" fill="#39b54a" opacity="0.43"/><circle cx="636.25" cy="125.76" r="40.55" fill="#f15a24" opacity="0.64"/><circle cx="796.04" cy="256.25" r="70.4" fill="#0071bc" opacity="0.67"/><path d="M593.26,1303.84" transform="translate(-36.29 -108.57)" fill="#009245"/></svg>