<svg id="a485c4a9-4c4e-4b35-8557-7a4663c30cee" data-name="Camada 2" xmlns="http://www.w3.org/2000/svg" viewBox="0 0 761.42 281.43"><text transform="translate(23 260.99)" font-size="28.91" fill="#1b1464" font-family="Quicksand-SemiBold, Quicksand" font-weight="600">Cent<tspan x="63.42" y="0" letter-spacing="-0.02em">r</tspan><tspan x="74.87" y="0">o de </tspan><tspan x="143.56" y="0" letter-spacing="0em">R</tspan><tspan x="163.1" y="0">e</tspan><tspan x="179.92" y="0" letter-spacing="-0.03em">f</tspan><tspan x="190.88" y="0">e</tspan><tspan x="207.71" y="0" letter-spacing="-0.02em">r</tspan><tspan x="219.15" y="0">ência em In</tspan><tspan x="376.85" y="0" letter-spacing="0em">o</tspan><tspan x="394.54" y="0" letter-spacing="0em">v</tspan><tspan x="410.41" y="0">ação da Ap</tspan><tspan x="567.64" y="0" letter-spacing="-0.02em">r</tspan><tspan x="579.09" y="0">endiza</tspan><tspan x="669.43" y="0" letter-spacing="-0.02em">g</tspan><tspan x="687.15" y="0">em</tspan></text><path d="M131.75,382.41C212.38,398.76,250,357,273.57,354.63c15.19-.7,27.25,15,22.5,33-4.43,8.63-12.26,12.58-26.58,7.65" transform="translate(-26.44 -150.86)" fill="none" stroke="#1b1464" stroke-miterlimit="10" stroke-width="2"/><path d="M133.28,380.85a3.33,3.33,0,0,0-3.23,0l1.65,2Z" transform="translate(-26.44 -150.86)" fill="#f15a24"/><path d="M122.65,371.24a6.61,6.61,0,0,0,5.49,0,10.9,10.9,0,0,0,7.16,0,6.25,6.25,0,0,0,5.47,0l-7.25,8.8c-.53-.6-2.77-.73-3.64,0Z" transform="translate(-26.44 -150.86)" fill="#f15a24"/><text transform="translate(205.25 226.22)" font-size="249.86" fill="#009245" font-family="Quicksand-SemiBold, Quicksand" font-weight="600">C<tspan x="158.9" y="0" fill="#0071bc" letter-spacing="0em">R</tspan><tspan x="329.06" y="0" fill="#fbb03b">I</tspan><tspan x="395.77" y="0" fill="#f15a24" letter-spacing="0em">A</tspan></text><path d="M140.77,370.13V308c2.44-24.85,17.59-31.49,41-30.6-5.23-3.65-11.24-4.45-20.6-5.1a1.65,1.65,0,0,1-1.55-1.33c-2.1-13.19-2.56-20.77-6.09-23.7,1.87,6.79-.83,15.59-9.33,33.29-4.5,8.37-8.28,15.31-8.25,27.42v62.17C137.18,371.17,139.86,371.17,140.77,370.13Z" transform="translate(-26.44 -150.86)" fill="#f15a24"/><path d="M134.74,309.45c1.2-53.36,24.76-78.2,35.16-76.87-7-9-32.61,16-38.1,16.71-12-5.58-31.68-29.62-39.14-19.88,16.87,1.1,35.73,30.63,35.75,80v60.69c1.66,1,4.92,1,6.33,0Z" transform="translate(-26.44 -150.86)" fill="#f15a24"/><path d="M127.46,307.69c.23-14.43-5.5-31.2-9.93-38.74-6.67-15.09-9.14-19.23-8.69-21.53-1.75.56-1.13,2.27.62,21.37a1.4,1.4,0,0,1-1.41,1.47c-19.33.63-21.23,2.87-26.45,5.69,25.24-3.23,38.66,7.57,41.05,32v62.15c.6,1,3.06,1.12,4.85,0Z" transform="translate(-26.44 -150.86)" fill="#f15a24"/><circle cx="40.66" cy="127.99" r="18.39" fill="#e11e95" opacity="0.61"/><circle cx="69.67" cy="109.05" r="9.31" fill="#f15a24"/><circle cx="18.39" cy="118.91" r="11.79" fill="#f15a24" opacity="0.64"/><circle cx="44.63" cy="94.64" r="14.42" fill="#39b54a" opacity="0.43"/><circle cx="130.78" cy="54.93" r="11.55" fill="#fbb03b" opacity="0.71"/><circle cx="18.39" cy="94.64" r="18.39" fill="#0071bc" opacity="0.67"/><circle cx="143.47" cy="109.6" r="9.31" fill="#f15a24"/><circle cx="105.89" cy="77.54" r="13.22" fill="#f15a24"/><circle cx="146.02" cy="19.93" r="18.39" fill="#e11e95" opacity="0.61"/><circle cx="194.12" cy="91.55" r="12.26" fill="#e11e95" opacity="0.61"/><circle cx="60.35" cy="62.79" r="18.01" fill="#fbb03b" opacity="0.71"/><circle cx="120.06" cy="44.28" r="14.42" fill="#39b54a" opacity="0.43"/><circle cx="176.58" cy="113.94" r="19.14" fill="#39b54a" opacity="0.43"/><circle cx="188" cy="72.19" r="18.39" fill="#0071bc" opacity="0.67"/><circle cx="88.33" cy="56.04" r="12.01" fill="#0071bc" opacity="0.67"/><circle cx="61.86" cy="33.13" r="18.96" fill="#f15a24" opacity="0.64"/><circle cx="174.66" cy="33.13" r="10.25" fill="#f15a24" opacity="0.64"/><circle cx="40.66" cy="69.04" r="10.25" fill="#f15a24" opacity="0.64"/><circle cx="81.95" cy="12.26" r="12.26" fill="#e11e95" opacity="0.61"/><circle cx="158.75" cy="96.25" r="10.25" fill="#f15a24" opacity="0.64"/><circle cx="100.33" cy="28.69" r="18.39" fill="#1b1464" opacity="0.67"/><circle cx="22.27" cy="64.32" r="12.46" fill="#1b1464" opacity="0.67"/><circle cx="194.12" cy="47.08" r="12.46" fill="#1b1464" opacity="0.67"/><circle cx="159.16" cy="72.19" r="18.01" fill="#fbb03b" opacity="0.71"/><circle cx="36.78" cy="39.22" r="10.87" fill="#39b54a" opacity="0.43"/><circle cx="122.11" cy="24.14" r="7.78" fill="#f15a24" opacity="0.64"/><circle cx="152.78" cy="49.18" r="13.51" fill="#0071bc" opacity="0.67"/><path d="M204.8,411.8" transform="translate(-26.44 -150.86)" fill="#009245"/></svg>